# xmcd
#
# Track frame offsets: 
#        150
#        14670
#        27771
#        47309
#        67109
#        78718
#        95771
#        107916
#        124737
#        141567
#        157592
#        169484
#        186109
#
# Disc length: 2820 seconds
#
# Revision: 0
# Processed by: cddbd v1.5.2PL0 Copyright (c) Steve Scherf et al.
# Submitted via: ExactAudioCopy v1.0b3
#
DISCID=b40b020d
DTITLE=Hot Dog Taylor - Back In Business
DYEAR=2013
DGENRE=Blues
TTITLE0=Rock With Me
TTITLE1=Bocklarud Bottle Battle
TTITLE2=Shake Your Moneymaker-Hot Dog Boogie
TTITLE3=Sun Is Shining
TTITLE4=She'll Be Coming 'round The Mountain
TTITLE5=See Me In The Evening
TTITLE6=Chris Cross
TTITLE7=Honest I Do
TTITLE8=Down With The Sad Blues
TTITLE9=Stumblin' With Mike
TTITLE10=Waiting For Me
TTITLE11=Hello Josephine
TTITLE12=Anna-Lee
EXTD=
EXTT0=
EXTT1=
EXTT2=
EXTT3=
EXTT4=
EXTT5=
EXTT6=
EXTT7=
EXTT8=
EXTT9=
EXTT10=
EXTT11=
EXTT12=
PLAYORDER=
